<?xml version="1.0" encoding="UTF-8" standalone="no"?>
<svg width="1118px" height="421px" viewBox="0 0 1118 421" version="1.1" xmlns="http://www.w3.org/2000/svg" xmlns:xlink="http://www.w3.org/1999/xlink">
    <!-- Generator: Sketch 3.6.1 (26313) - http://www.bohemiancoding.com/sketch -->
    <title>Group</title>
    <desc>Created with Sketch.</desc>
    <defs></defs>
    <g id="V4" stroke="none" stroke-width="1" fill="none" fill-rule="evenodd" opacity="0.3">
        <g id="Home---Desktop---Hover" transform="translate(-60.000000, 0.000000)" stroke="#FF5F19">
            <g id="Header">
                <g id="Group" transform="translate(60.000000, -60.000000)">
                    <g id="Pattern">
                        <path d="M276.363665,146.610305 L276.363665,198.366237 L236.291267,158.339119 L262.36819,132.617085 L276.363665,146.610305 L276.363665,146.610305 Z" id="Stroke-1"></path>
                        <path d="M599.929005,380.196746 L599.929005,431.966237 L556.965204,388.928949 L582.689186,363.206915 L599.929005,380.196746 L599.929005,380.196746 Z" id="Stroke-2"></path>
                        <path d="M582.651855,331.433492 L582.651855,383.204339 L539.67448,340.153492 L565.412036,314.431458 L582.651855,331.433492 L582.651855,331.433492 Z" id="Stroke-4"></path>
                        <path d="M599.929005,248.156203 L599.929005,299.925695 L556.951629,256.874847 L582.689186,231.152814 L599.929005,248.156203 L599.929005,248.156203 Z" id="Stroke-5"></path>
                        <path d="M582.651855,199.393627 L582.651855,251.163119 L539.67448,208.112271 L565.412036,182.390237 L582.651855,199.393627 L582.651855,199.393627 Z" id="Stroke-7"></path>
                        <path d="M599.929005,116.115661 L599.929005,167.885153 L556.951629,124.834305 L582.689186,99.1122712 L599.929005,116.115661 L599.929005,116.115661 Z" id="Stroke-8"></path>
                        <path d="M582.651855,67.3524068 L582.651855,119.121898 L539.67448,76.0710508 L565.412036,50.3503729 L582.651855,67.3524068 L582.651855,67.3524068 Z" id="Stroke-10"></path>
                        <path d="M532.167828,17.5629831 L558.244751,43.2850169 L517.90086,83.583322 L517.90086,31.8138305 L532.167828,17.5629831 L532.167828,17.5629831 Z" id="Stroke-11"></path>
                        <path d="M549.444977,66.3255593 L575.5219,92.0475932 L535.178009,132.345898 L535.178009,80.5764068 L549.444977,66.3255593 L549.444977,66.3255593 Z" id="Stroke-12"></path>
                        <path d="M532.167828,149.603525 L558.244751,175.325559 L517.90086,215.623864 L517.90086,163.867932 L532.167828,149.603525 L532.167828,149.603525 Z" id="Stroke-13"></path>
                        <path d="M549.444977,198.366102 L575.5219,224.088136 L535.178009,264.386441 L535.178009,212.630508 L549.444977,198.366102 L549.444977,198.366102 Z" id="Stroke-14"></path>
                        <path d="M532.167828,281.644068 L558.244751,307.366102 L517.90086,347.664407 L517.90086,295.909831 L532.167828,281.644068 L532.167828,281.644068 Z" id="Stroke-15"></path>
                        <path d="M575.5219,356.128949 L535.178009,396.427254 L535.178009,344.671322 L549.444977,330.420475 L575.5219,356.128949 L575.5219,356.128949 Z" id="Stroke-16"></path>
                        <path d="M558.244615,439.407593 L517.900724,479.718102 L517.900724,427.949966 L532.167692,413.684203 L558.244615,439.407593 L558.244615,439.407593 Z" id="Stroke-17"></path>
                        <path d="M535.177738,410.691932 L535.177738,462.461424 L494.684525,422.000407 L520.503529,396.032949 L535.177738,410.691932 L535.177738,410.691932 Z" id="Stroke-19"></path>
                        <path d="M517.900452,361.928678 L517.900452,413.68461 L477.40724,373.237153 L503.226244,347.272407 L517.900452,361.928678 L517.900452,361.928678 Z" id="Stroke-20"></path>
                        <path d="M535.177738,278.651525 L535.177738,330.407458 L494.684525,289.96 L520.503529,263.992542 L535.177738,278.651525 L535.177738,278.651525 Z" id="Stroke-21"></path>
                        <path d="M517.900452,229.888271 L517.900452,281.644203 L477.40724,241.196746 L477.393665,241.183186 L503.226244,215.217085 L517.900452,229.888271 L517.900452,229.888271 Z" id="Stroke-22"></path>
                        <path d="M535.177738,146.610305 L535.177738,198.366237 L494.915294,158.149288 L520.978643,132.427254 L535.177738,146.610305 L535.177738,146.610305 Z" id="Stroke-23"></path>
                        <path d="M517.900452,97.8344407 L517.900452,149.603932 L477.475113,109.224271 L500.932127,85.7802034 L503.38914,83.3259661 L517.900452,97.8344407 L517.900452,97.8344407 Z" id="Stroke-24"></path>
                        <path d="M535.177738,14.5557966 L535.177738,66.3252881 L494.901719,26.0947797 L520.978643,0.372745763 L535.177738,14.5557966 L535.177738,14.5557966 Z" id="Stroke-25"></path>
                        <path d="M496.262579,76.2070508 L493.805566,78.6612881 L453.312353,119.122305 L453.312353,67.3528136 L470.470724,50.4307797 L496.262579,76.2070508 L496.262579,76.2070508 Z" id="Stroke-27"></path>
                        <path d="M513.539729,124.969627 L511.082715,127.423864 L470.589502,167.884881 L470.589502,116.11539 L487.639276,99.0848814 L513.539729,124.969627 L513.539729,124.969627 Z" id="Stroke-28"></path>
                        <path d="M470.470724,182.471593 L496.113258,208.112271 L453.312353,251.163119 L453.312353,199.393627 L470.470724,182.471593 L470.470724,182.471593 Z" id="Stroke-29"></path>
                        <path d="M487.584842,231.072 L513.390271,256.874034 L470.589367,299.924881 L470.589367,248.156746 L487.584842,231.072 L487.584842,231.072 Z" id="Stroke-30"></path>
                        <path d="M470.307692,314.349288 L496.113122,340.152678 L453.312217,383.203525 L453.312217,331.434034 L470.307692,314.349288 L470.307692,314.349288 Z" id="Stroke-31"></path>
                        <path d="M487.584842,363.112542 L513.390271,388.914576 L470.589367,431.965424 L470.589367,380.197288 L487.584842,363.112542 L487.584842,363.112542 Z" id="Stroke-32"></path>
                        <path d="M453.312081,397.454373 L453.312081,449.223864 L410.348281,406.187932 L436.072262,380.464542 L453.312081,397.454373 L453.312081,397.454373 Z" id="Stroke-33"></path>
                        <path d="M470.589367,314.175864 L470.589367,365.946712 L427.611991,322.895864 L453.349548,297.173831 L470.589367,314.175864 L470.589367,314.175864 Z" id="Stroke-34"></path>
                        <path d="M453.312081,265.413966 L453.312081,317.183458 L410.334706,274.13261 L436.072262,248.410576 L453.312081,265.413966 L453.312081,265.413966 Z" id="Stroke-35"></path>
                        <path d="M470.589367,182.136 L470.589367,233.905492 L427.611991,190.854644 L453.349548,165.13261 L470.589367,182.136 L470.589367,182.136 Z" id="Stroke-36"></path>
                        <path d="M453.312081,133.373424 L453.312081,185.142915 L410.334706,142.092068 L436.072262,116.370034 L453.312081,133.373424 L453.312081,133.373424 Z" id="Stroke-37"></path>
                        <path d="M470.589367,50.0947797 L470.589367,101.864271 L427.611991,58.8134237 L453.349548,33.0913898 L470.589367,50.0947797 L470.589367,50.0947797 Z" id="Stroke-38"></path>
                        <path d="M428.918824,109.305627 L388.561357,149.603932 L388.561357,97.8344407 L402.828326,83.5835932 L428.918824,109.305627 L428.918824,109.305627 Z" id="Stroke-39"></path>
                        <path d="M446.195973,158.068203 L405.838507,198.366508 L405.838507,146.610576 L420.105475,132.346169 L446.195973,158.068203 L446.195973,158.068203 Z" id="Stroke-40"></path>
                        <path d="M428.918824,241.346169 L388.561357,281.644475 L388.561357,229.888542 L402.828326,215.624136 L428.918824,241.346169 L428.918824,241.346169 Z" id="Stroke-41"></path>
                        <path d="M428.918824,373.386576 L388.561357,413.684881 L388.561357,361.928949 L402.828326,347.664542 L428.918824,373.386576 L428.918824,373.386576 Z" id="Stroke-42"></path>
                        <path d="M420.105204,264.386305 L446.182127,290.108339 L405.838235,330.408 L405.838235,278.652068 L420.105204,264.386305 L420.105204,264.386305 Z" id="Stroke-43"></path>
                        <path d="M420.105204,396.426847 L446.182127,422.150237 L405.838235,462.448542 L405.838235,410.69261 L420.105204,396.426847 L420.105204,396.426847 Z" id="Stroke-44"></path>
                        <path d="M388.561357,427.949695 L388.561357,479.705627 L348.068145,439.258169 L348.000271,439.190373 L373.751403,413.290712 L373.819276,413.224271 L388.561357,427.949695 L388.561357,427.949695 Z" id="Stroke-45"></path>
                        <path d="M405.838643,344.671051 L405.838643,396.426983 L365.34543,355.979525 L365.277557,355.911729 L391.028688,330.013424 L391.096561,329.946983 L405.838643,344.671051 L405.838643,344.671051 Z" id="Stroke-47"></path>
                        <path d="M388.561357,295.909153 L388.561357,347.665085 L348.068145,307.217627 L348.000271,307.149831 L373.751403,281.250169 L373.819276,281.183729 L388.561357,295.909153 L388.561357,295.909153 Z" id="Stroke-48"></path>
                        <path d="M405.838643,212.630508 L405.838643,264.386441 L365.34543,223.938983 L365.263982,223.857627 L391.028688,197.959322 L391.096561,197.891525 L405.838643,212.630508 L405.838643,212.630508 Z" id="Stroke-49"></path>
                        <path d="M388.561357,163.867932 L388.561357,215.623864 L348.217466,175.325559 L374.294389,149.603525 L388.561357,163.867932 L388.561357,163.867932 Z" id="Stroke-50"></path>
                        <path d="M405.838643,80.5768136 L405.838643,132.346305 L365.34543,91.8988475 L365.277557,91.8310508 L391.028688,65.9598644 L391.12371,65.8649492 L405.838643,80.5768136 L405.838643,80.5768136 Z" id="Stroke-51"></path>
                        <path d="M388.561357,31.8135593 L388.561357,83.5830508 L348.217466,43.2847458 L374.294389,17.5627119 L388.561357,31.8135593 L388.561357,31.8135593 Z" id="Stroke-52"></path>
                        <path d="M340.941448,116.261424 L366.801176,142.119051 L323.837376,185.14278 L323.837376,133.373288 L340.900724,116.220746 L340.941448,116.261424 L340.941448,116.261424 Z" id="Stroke-53"></path>
                        <path d="M340.941448,380.355661 L366.706154,406.118373 L366.638281,406.187525 L323.837376,449.223458 L323.837376,397.453966 L340.887149,380.301424 L340.941448,380.355661 L340.941448,380.355661 Z" id="Stroke-54"></path>
                        <path d="M358.340498,165.145763 L383.983032,190.786441 L383.915158,190.854237 L341.114253,233.905085 L341.114253,182.135593 L358.340498,165.145763 L358.340498,165.145763 Z" id="Stroke-55"></path>
                        <path d="M340.941448,248.301831 L366.706154,274.064542 L366.638281,274.132339 L323.837376,317.183186 L323.837376,265.413695 L340.900724,248.261153 L340.941448,248.301831 L340.941448,248.301831 Z" id="Stroke-56"></path>
                        <path d="M358.218597,297.065085 L383.983303,322.827797 L383.91543,322.895593 L341.114525,365.946441 L341.114525,314.175593 L358.177873,297.024407 L358.218597,297.065085 L358.218597,297.065085 Z" id="Stroke-57"></path>
                        <path d="M341.114389,380.196746 L341.114389,431.966237 L298.150588,388.928949 L323.87457,363.206915 L341.114389,380.196746 L341.114389,380.196746 Z" id="Stroke-58"></path>
                        <path d="M323.83724,331.433492 L323.83724,383.204339 L280.859864,340.153492 L306.597421,314.431458 L323.83724,331.433492 L323.83724,331.433492 Z" id="Stroke-59"></path>
                        <path d="M341.114389,248.156203 L341.114389,299.925695 L298.137014,256.874847 L323.87457,231.152814 L341.114389,248.156203 L341.114389,248.156203 Z" id="Stroke-60"></path>
                        <path d="M323.83724,199.393627 L323.83724,251.163119 L280.859864,208.112271 L306.597421,182.390237 L323.83724,199.393627 L323.83724,199.393627 Z" id="Stroke-61"></path>
                        <path d="M341.114389,116.115661 L341.114389,167.885153 L298.137014,124.834305 L323.87457,99.1122712 L341.114389,116.115661 L341.114389,116.115661 Z" id="Stroke-62"></path>
                        <path d="M323.83724,67.3524068 L323.83724,119.121898 L280.859864,76.0710508 L306.597421,50.3503729 L323.83724,67.3524068 L323.83724,67.3524068 Z" id="Stroke-63"></path>
                        <path d="M273.353077,17.5629831 L299.43,43.2850169 L259.086109,83.583322 L259.086109,31.8138305 L273.353077,17.5629831 L273.353077,17.5629831 Z" id="Stroke-64"></path>
                        <path d="M290.630362,66.3255593 L316.707285,92.0475932 L276.363394,132.345898 L276.363394,80.5764068 L290.630362,66.3255593 L290.630362,66.3255593 Z" id="Stroke-65"></path>
                        <path d="M273.353077,149.603525 L299.43,175.325559 L259.086109,215.623864 L259.086109,163.867932 L273.353077,149.603525 L273.353077,149.603525 Z" id="Stroke-66"></path>
                        <path d="M290.630362,198.366102 L316.707285,224.088136 L276.363394,264.386441 L276.363394,212.630508 L290.630362,198.366102 L290.630362,198.366102 Z" id="Stroke-67"></path>
                        <path d="M273.353077,281.644068 L299.43,307.366102 L259.086109,347.664407 L259.086109,295.909831 L273.353077,281.644068 L273.353077,281.644068 Z" id="Stroke-68"></path>
                        <path d="M290.630362,330.407322 L316.707285,356.129356 L276.363394,396.426305 L276.363394,344.671729 L290.630362,330.407322 L290.630362,330.407322 Z" id="Stroke-69"></path>
                        <path d="M273.353077,413.68461 L299.43,439.408 L259.086109,479.718508 L259.086109,427.950373 L273.353077,413.68461 L273.353077,413.68461 Z" id="Stroke-70"></path>
                        <path d="M276.363665,410.691932 L276.363665,462.461424 L236.074072,422.217356 L261.906652,396.237695 L276.363665,410.691932 L276.363665,410.691932 Z" id="Stroke-72"></path>
                        <path d="M259.08638,361.928678 L259.08638,413.68461 L218.796787,373.440542 L244.629367,347.474441 L259.08638,361.928678 L259.08638,361.928678 Z" id="Stroke-73"></path>
                        <path d="M276.363665,278.651525 L276.363665,330.407458 L236.074072,290.162034 L261.906652,264.197288 L276.363665,278.651525 L276.363665,278.651525 Z" id="Stroke-74"></path>
                        <path d="M259.08638,229.888271 L259.08638,281.644203 L218.796787,241.400136 L244.629367,215.434034 L259.08638,229.888271 L259.08638,229.888271 Z" id="Stroke-75"></path>
                        <path d="M259.08638,97.8344407 L259.08638,149.603932 L218.796787,109.373424 L244.642941,83.407322 L259.08638,97.8344407 L259.08638,97.8344407 Z" id="Stroke-76"></path>
                        <path d="M276.363665,14.5557966 L276.363665,66.3252881 L236.291267,26.2981695 L262.381765,0.577491525 L276.363665,14.5557966 L276.363665,14.5557966 Z" id="Stroke-77"></path>
                        <path d="M254.888145,125.132475 L212.182262,167.885017 L212.182262,116.115525 L228.974118,99.2341695 L254.888145,125.132475 L254.888145,125.132475 Z" id="Stroke-79"></path>
                        <path d="M211.860136,50.6344407 L237.516244,76.288678 L194.905385,119.122576 L194.905385,67.3517288 L211.860136,50.6344407 L211.860136,50.6344407 Z" id="Stroke-80"></path>
                        <path d="M211.860136,182.674847 L237.50267,208.315525 L194.905385,251.162983 L194.905385,199.393492 L211.860136,182.674847 L211.860136,182.674847 Z" id="Stroke-81"></path>
                        <path d="M228.974253,231.274576 L254.779683,257.077966 L212.182398,299.925424 L212.182398,248.155932 L228.974253,231.274576 L228.974253,231.274576 Z" id="Stroke-82"></path>
                        <path d="M211.697104,314.55322 L237.502534,340.355254 L194.905249,383.204068 L194.905249,331.43322 L211.697104,314.55322 L211.697104,314.55322 Z" id="Stroke-83"></path>
                        <path d="M254.779412,389.118915 L212.182127,431.966373 L212.182127,380.196881 L228.973982,363.327729 L254.779412,389.118915 L254.779412,389.118915 Z" id="Stroke-84"></path>
                        <path d="M194.905113,397.454373 L194.905113,449.223864 L151.941312,406.173017 L177.665294,380.450983 L194.905113,397.454373 L194.905113,397.454373 Z" id="Stroke-85"></path>
                        <path d="M212.182262,314.175864 L212.182262,365.946712 L169.218462,322.895864 L194.942443,297.173831 L212.182262,314.175864 L212.182262,314.175864 Z" id="Stroke-86"></path>
                        <path d="M194.905113,265.413966 L194.905113,317.183458 L151.941312,274.13261 L177.665294,248.410576 L194.905113,265.413966 L194.905113,265.413966 Z" id="Stroke-87"></path>
                        <path d="M212.182262,182.136 L212.182262,233.905492 L169.218462,190.854644 L194.942443,165.13261 L212.182262,182.136 L212.182262,182.136 Z" id="Stroke-88"></path>
                        <path d="M194.905113,133.373424 L194.905113,185.142915 L151.941312,142.092068 L177.665294,116.370034 L194.905113,133.373424 L194.905113,133.373424 Z" id="Stroke-89"></path>
                        <path d="M212.182262,50.0947797 L212.182262,101.864271 L169.218462,58.8134237 L194.942443,33.0913898 L212.182262,50.0947797 L212.182262,50.0947797 Z" id="Stroke-90"></path>
                        <path d="M170.511719,241.346169 L130.167828,281.644475 L130.154253,229.888542 L144.421222,215.624136 L170.511719,241.346169 L170.511719,241.346169 Z" id="Stroke-91"></path>
                        <path d="M187.789005,26.0269831 L147.431538,66.3252881 L147.445113,14.5557966 L161.698507,0.304949153 L187.789005,26.0269831 L187.789005,26.0269831 Z" id="Stroke-92"></path>
                        <path d="M446.195973,26.0269831 L405.838507,66.3252881 L405.852081,14.5557966 L420.105475,0.304949153 L446.195973,26.0269831 L446.195973,26.0269831 Z" id="Stroke-94"></path>
                        <path d="M170.511719,109.305627 L130.154253,149.603932 L130.154253,97.8344407 L144.421222,83.5835932 L170.511719,109.305627 L170.511719,109.305627 Z" id="Stroke-97"></path>
                        <path d="M187.789005,158.068203 L147.431538,198.366508 L147.431538,146.610576 L161.698507,132.346169 L187.789005,158.068203 L187.789005,158.068203 Z" id="Stroke-98"></path>
                        <path d="M187.789005,290.108068 L147.431538,330.407729 L147.431538,278.651797 L161.698507,264.386034 L187.789005,290.108068 L187.789005,290.108068 Z" id="Stroke-99"></path>
                        <path d="M170.511719,373.386576 L130.154253,413.684881 L130.154253,361.928949 L144.421222,347.664542 L170.511719,373.386576 L170.511719,373.386576 Z" id="Stroke-100"></path>
                        <path d="M161.698235,396.426847 L187.775158,422.162441 L147.431267,462.460746 L147.431267,410.69261 L161.698235,396.426847 L161.698235,396.426847 Z" id="Stroke-101"></path>
                        <path d="M115.900995,17.5629831 L130.167964,31.8138305 L130.154389,83.583322 L89.8240724,43.2985763 L115.900995,17.5629831 L115.900995,17.5629831 Z" id="Stroke-102"></path>
                        <path d="M147.431538,212.630508 L147.445113,264.386441 L106.938326,223.938983 L106.856878,223.857627 L132.621584,197.959322 L132.689457,197.891525 L147.431538,212.630508 L147.431538,212.630508 Z" id="Stroke-103"></path>
                        <path d="M130.154389,427.949695 L130.154389,479.719186 L89.6611765,439.258169 L89.5933032,439.190373 L115.344434,413.290712 L115.412308,413.224271 L130.154389,427.949695 L130.154389,427.949695 Z" id="Stroke-104"></path>
                        <path d="M147.431538,344.671051 L147.431538,396.426983 L106.938326,355.979525 L106.870452,355.911729 L132.621584,330.013424 L132.703032,329.932068 L147.431538,344.671051 L147.431538,344.671051 Z" id="Stroke-106"></path>
                        <path d="M130.154389,295.909153 L130.154389,347.665085 L89.6611765,307.217627 L89.5933032,307.149831 L115.344434,281.250169 L115.425882,281.170169 L130.154389,295.909153 L130.154389,295.909153 Z" id="Stroke-107"></path>
                        <path d="M130.154389,163.867932 L130.154389,215.623864 L89.8240724,175.339119 L115.900995,149.603525 L130.154389,163.867932 L130.154389,163.867932 Z" id="Stroke-108"></path>
                        <path d="M147.431538,80.5768136 L147.431538,132.346305 L106.938326,91.8988475 L106.870452,91.8310508 L132.621584,65.9598644 L132.716606,65.8649492 L147.431538,80.5768136 L147.431538,80.5768136 Z" id="Stroke-109"></path>
                        <path d="M108.4481,142.159864 L65.43,185.142915 L65.43,133.373424 L82.5069231,116.220881 L82.5476471,116.261559 L108.4481,142.159864 L108.4481,142.159864 Z" id="Stroke-110"></path>
                        <path d="M125.603348,58.7461695 L125.508326,58.8410847 L82.7074208,101.864814 L82.7074208,50.095322 L99.9336652,33.0919322 L125.603348,58.7461695 L125.603348,58.7461695 Z" id="Stroke-111"></path>
                        <path d="M99.9335294,165.132475 L125.576063,190.786712 L125.50819,190.854508 L82.7072851,233.905356 L82.7072851,182.135864 L99.9335294,165.132475 L99.9335294,165.132475 Z" id="Stroke-112"></path>
                        <path d="M82.5476471,248.301831 L108.298778,274.064542 L108.230905,274.132339 L65.43,317.183186 L65.43,265.413695 L82.4933484,248.247593 L82.5476471,248.301831 L82.5476471,248.301831 Z" id="Stroke-113"></path>
                        <path d="M99.8247964,297.065085 L125.575928,322.827797 L125.508054,322.895593 L82.7071493,365.946441 L82.7071493,314.175593 L99.7704977,297.010847 L99.8247964,297.065085 L99.8247964,297.065085 Z" id="Stroke-114"></path>
                        <path d="M82.5476471,380.355661 L108.298778,406.104814 L108.230905,406.17261 L65.43,449.223458 L65.43,397.453966 L82.4933484,380.301424 L82.5476471,380.355661 L82.5476471,380.355661 Z" id="Stroke-115"></path>
                        <path d="M82.7072851,380.196746 L82.7072851,431.966237 L39.7434842,388.91539 L65.4674661,363.206915 L82.7072851,380.196746 L82.7072851,380.196746 Z" id="Stroke-116"></path>
                        <path d="M65.4301357,331.433492 L65.4301357,383.204339 L22.4663348,340.153492 L48.1903167,314.431458 L65.4301357,331.433492 L65.4301357,331.433492 Z" id="Stroke-117"></path>
                        <path d="M82.7072851,248.156203 L82.7072851,299.925695 L39.7434842,256.874847 L65.4674661,231.152814 L82.7072851,248.156203 L82.7072851,248.156203 Z" id="Stroke-118"></path>
                        <path d="M65.4301357,199.393627 L65.4301357,251.163119 L22.4663348,208.112271 L48.1903167,182.390237 L65.4301357,199.393627 L65.4301357,199.393627 Z" id="Stroke-119"></path>
                        <path d="M82.7072851,116.115661 L82.7072851,167.885153 L39.7434842,124.834305 L65.4674661,99.1122712 L82.7072851,116.115661 L82.7072851,116.115661 Z" id="Stroke-120"></path>
                        <path d="M65.4301357,67.3524068 L65.4301357,119.121898 L22.4663348,76.0710508 L48.1903167,50.3503729 L65.4301357,67.3524068 L65.4301357,67.3524068 Z" id="Stroke-121"></path>
                        <path d="M41.0361991,43.2846102 L0.678733032,83.5829153 L0.678733032,31.8134237 L14.9457014,17.5625763 L41.0361991,43.2846102 L41.0361991,43.2846102 Z" id="Stroke-122"></path>
                        <path d="M58.3133484,92.0478644 L17.9558824,132.346169 L17.9558824,80.576678 L32.2228507,66.3258305 L58.3133484,92.0478644 L58.3133484,92.0478644 Z" id="Stroke-124"></path>
                        <path d="M41.0361991,175.325831 L0.678733032,215.624136 L0.678733032,163.868203 L14.9457014,149.603797 L41.0361991,175.325831 L41.0361991,175.325831 Z" id="Stroke-125"></path>
                        <path d="M58.3133484,224.088407 L17.9558824,264.386712 L17.9558824,212.63078 L32.2228507,198.366373 L58.3133484,224.088407 L58.3133484,224.088407 Z" id="Stroke-127"></path>
                        <path d="M41.0361991,307.365695 L0.678733032,347.665356 L0.678733032,295.909424 L14.9457014,281.643661 L41.0361991,307.365695 L41.0361991,307.365695 Z" id="Stroke-128"></path>
                        <path d="M58.3133484,356.128949 L17.9558824,396.427254 L17.9558824,344.671322 L32.2228507,330.406915 L58.3133484,356.128949 L58.3133484,356.128949 Z" id="Stroke-130"></path>
                        <path d="M14.9459729,413.68461 L41.0228959,439.420203 L0.679004525,479.718508 L0.679004525,427.950373 L14.9459729,413.68461 L14.9459729,413.68461 Z" id="Stroke-131"></path>
                        <path d="M358.340498,33.1052203 L383.996606,58.7594576 L383.915158,58.8408136 L341.114253,101.864542 L341.114253,50.0950508 L358.340498,33.1052203 L358.340498,33.1052203 Z" id="Stroke-133"></path>
                    </g>
                    <g id="Pattern" transform="translate(582.000000, 0.000000)">
                        <path d="M211.363665,146.610305 L211.363665,198.366237 L171.291267,158.339119 L197.36819,132.617085 L211.363665,146.610305 L211.363665,146.610305 Z" id="Stroke-1"></path>
                        <path d="M534.929005,380.196746 L534.929005,431.966237 L491.965204,388.928949 L517.689186,363.206915 L534.929005,380.196746 L534.929005,380.196746 Z" id="Stroke-2"></path>
                        <path d="M517.651855,331.433492 L517.651855,383.204339 L474.67448,340.153492 L500.412036,314.431458 L517.651855,331.433492 L517.651855,331.433492 Z" id="Stroke-4"></path>
                        <path d="M534.929005,248.156203 L534.929005,299.925695 L491.951629,256.874847 L517.689186,231.152814 L534.929005,248.156203 L534.929005,248.156203 Z" id="Stroke-5"></path>
                        <path d="M517.651855,199.393627 L517.651855,251.163119 L474.67448,208.112271 L500.412036,182.390237 L517.651855,199.393627 L517.651855,199.393627 Z" id="Stroke-7"></path>
                        <path d="M534.929005,116.115661 L534.929005,167.885153 L491.951629,124.834305 L517.689186,99.1122712 L534.929005,116.115661 L534.929005,116.115661 Z" id="Stroke-8"></path>
                        <path d="M517.651855,67.3524068 L517.651855,119.121898 L474.67448,76.0710508 L500.412036,50.3503729 L517.651855,67.3524068 L517.651855,67.3524068 Z" id="Stroke-10"></path>
                        <path d="M467.167828,17.5629831 L493.244751,43.2850169 L452.90086,83.583322 L452.90086,31.8138305 L467.167828,17.5629831 L467.167828,17.5629831 Z" id="Stroke-11"></path>
                        <path d="M484.444977,66.3255593 L510.5219,92.0475932 L470.178009,132.345898 L470.178009,80.5764068 L484.444977,66.3255593 L484.444977,66.3255593 Z" id="Stroke-12"></path>
                        <path d="M467.167828,149.603525 L493.244751,175.325559 L452.90086,215.623864 L452.90086,163.867932 L467.167828,149.603525 L467.167828,149.603525 Z" id="Stroke-13"></path>
                        <path d="M484.444977,198.366102 L510.5219,224.088136 L470.178009,264.386441 L470.178009,212.630508 L484.444977,198.366102 L484.444977,198.366102 Z" id="Stroke-14"></path>
                        <path d="M467.167828,281.644068 L493.244751,307.366102 L452.90086,347.664407 L452.90086,295.909831 L467.167828,281.644068 L467.167828,281.644068 Z" id="Stroke-15"></path>
                        <path d="M510.5219,356.128949 L470.178009,396.427254 L470.178009,344.671322 L484.444977,330.420475 L510.5219,356.128949 L510.5219,356.128949 Z" id="Stroke-16"></path>
                        <path d="M493.244615,439.407593 L452.900724,479.718102 L452.900724,427.949966 L467.167692,413.684203 L493.244615,439.407593 L493.244615,439.407593 Z" id="Stroke-17"></path>
                        <path d="M470.177738,410.691932 L470.177738,462.461424 L429.684525,422.000407 L455.503529,396.032949 L470.177738,410.691932 L470.177738,410.691932 Z" id="Stroke-19"></path>
                        <path d="M452.900452,361.928678 L452.900452,413.68461 L412.40724,373.237153 L438.226244,347.272407 L452.900452,361.928678 L452.900452,361.928678 Z" id="Stroke-20"></path>
                        <path d="M470.177738,278.651525 L470.177738,330.407458 L429.684525,289.96 L455.503529,263.992542 L470.177738,278.651525 L470.177738,278.651525 Z" id="Stroke-21"></path>
                        <path d="M452.900452,229.888271 L452.900452,281.644203 L412.40724,241.196746 L412.393665,241.183186 L438.226244,215.217085 L452.900452,229.888271 L452.900452,229.888271 Z" id="Stroke-22"></path>
                        <path d="M470.177738,146.610305 L470.177738,198.366237 L429.915294,158.149288 L455.978643,132.427254 L470.177738,146.610305 L470.177738,146.610305 Z" id="Stroke-23"></path>
                        <path d="M452.900452,97.8344407 L452.900452,149.603932 L412.475113,109.224271 L435.932127,85.7802034 L438.38914,83.3259661 L452.900452,97.8344407 L452.900452,97.8344407 Z" id="Stroke-24"></path>
                        <path d="M470.177738,14.5557966 L470.177738,66.3252881 L429.901719,26.0947797 L455.978643,0.372745763 L470.177738,14.5557966 L470.177738,14.5557966 Z" id="Stroke-25"></path>
                        <path d="M431.262579,76.2070508 L428.805566,78.6612881 L388.312353,119.122305 L388.312353,67.3528136 L405.470724,50.4307797 L431.262579,76.2070508 L431.262579,76.2070508 Z" id="Stroke-27"></path>
                        <path d="M448.539729,124.969627 L446.082715,127.423864 L405.589502,167.884881 L405.589502,116.11539 L422.639276,99.0848814 L448.539729,124.969627 L448.539729,124.969627 Z" id="Stroke-28"></path>
                        <path d="M405.470724,182.471593 L431.113258,208.112271 L388.312353,251.163119 L388.312353,199.393627 L405.470724,182.471593 L405.470724,182.471593 Z" id="Stroke-29"></path>
                        <path d="M422.584842,231.072 L448.390271,256.874034 L405.589367,299.924881 L405.589367,248.156746 L422.584842,231.072 L422.584842,231.072 Z" id="Stroke-30"></path>
                        <path d="M405.307692,314.349288 L431.113122,340.152678 L388.312217,383.203525 L388.312217,331.434034 L405.307692,314.349288 L405.307692,314.349288 Z" id="Stroke-31"></path>
                        <path d="M422.584842,363.112542 L448.390271,388.914576 L405.589367,431.965424 L405.589367,380.197288 L422.584842,363.112542 L422.584842,363.112542 Z" id="Stroke-32"></path>
                        <path d="M388.312081,397.454373 L388.312081,449.223864 L345.348281,406.187932 L371.072262,380.464542 L388.312081,397.454373 L388.312081,397.454373 Z" id="Stroke-33"></path>
                        <path d="M405.589367,314.175864 L405.589367,365.946712 L362.611991,322.895864 L388.349548,297.173831 L405.589367,314.175864 L405.589367,314.175864 Z" id="Stroke-34"></path>
                        <path d="M388.312081,265.413966 L388.312081,317.183458 L345.334706,274.13261 L371.072262,248.410576 L388.312081,265.413966 L388.312081,265.413966 Z" id="Stroke-35"></path>
                        <path d="M405.589367,182.136 L405.589367,233.905492 L362.611991,190.854644 L388.349548,165.13261 L405.589367,182.136 L405.589367,182.136 Z" id="Stroke-36"></path>
                        <path d="M388.312081,133.373424 L388.312081,185.142915 L345.334706,142.092068 L371.072262,116.370034 L388.312081,133.373424 L388.312081,133.373424 Z" id="Stroke-37"></path>
                        <path d="M405.589367,50.0947797 L405.589367,101.864271 L362.611991,58.8134237 L388.349548,33.0913898 L405.589367,50.0947797 L405.589367,50.0947797 Z" id="Stroke-38"></path>
                        <path d="M363.918824,109.305627 L323.561357,149.603932 L323.561357,97.8344407 L337.828326,83.5835932 L363.918824,109.305627 L363.918824,109.305627 Z" id="Stroke-39"></path>
                        <path d="M381.195973,158.068203 L340.838507,198.366508 L340.838507,146.610576 L355.105475,132.346169 L381.195973,158.068203 L381.195973,158.068203 Z" id="Stroke-40"></path>
                        <path d="M363.918824,241.346169 L323.561357,281.644475 L323.561357,229.888542 L337.828326,215.624136 L363.918824,241.346169 L363.918824,241.346169 Z" id="Stroke-41"></path>
                        <path d="M363.918824,373.386576 L323.561357,413.684881 L323.561357,361.928949 L337.828326,347.664542 L363.918824,373.386576 L363.918824,373.386576 Z" id="Stroke-42"></path>
                        <path d="M355.105204,264.386305 L381.182127,290.108339 L340.838235,330.408 L340.838235,278.652068 L355.105204,264.386305 L355.105204,264.386305 Z" id="Stroke-43"></path>
                        <path d="M355.105204,396.426847 L381.182127,422.150237 L340.838235,462.448542 L340.838235,410.69261 L355.105204,396.426847 L355.105204,396.426847 Z" id="Stroke-44"></path>
                        <path d="M323.561357,427.949695 L323.561357,479.705627 L283.068145,439.258169 L283.000271,439.190373 L308.751403,413.290712 L308.819276,413.224271 L323.561357,427.949695 L323.561357,427.949695 Z" id="Stroke-45"></path>
                        <path d="M340.838643,344.671051 L340.838643,396.426983 L300.34543,355.979525 L300.277557,355.911729 L326.028688,330.013424 L326.096561,329.946983 L340.838643,344.671051 L340.838643,344.671051 Z" id="Stroke-47"></path>
                        <path d="M323.561357,295.909153 L323.561357,347.665085 L283.068145,307.217627 L283.000271,307.149831 L308.751403,281.250169 L308.819276,281.183729 L323.561357,295.909153 L323.561357,295.909153 Z" id="Stroke-48"></path>
                        <path d="M340.838643,212.630508 L340.838643,264.386441 L300.34543,223.938983 L300.263982,223.857627 L326.028688,197.959322 L326.096561,197.891525 L340.838643,212.630508 L340.838643,212.630508 Z" id="Stroke-49"></path>
                        <path d="M323.561357,163.867932 L323.561357,215.623864 L283.217466,175.325559 L309.294389,149.603525 L323.561357,163.867932 L323.561357,163.867932 Z" id="Stroke-50"></path>
                        <path d="M340.838643,80.5768136 L340.838643,132.346305 L300.34543,91.8988475 L300.277557,91.8310508 L326.028688,65.9598644 L326.12371,65.8649492 L340.838643,80.5768136 L340.838643,80.5768136 Z" id="Stroke-51"></path>
                        <path d="M323.561357,31.8135593 L323.561357,83.5830508 L283.217466,43.2847458 L309.294389,17.5627119 L323.561357,31.8135593 L323.561357,31.8135593 Z" id="Stroke-52"></path>
                        <path d="M275.941448,116.261424 L301.801176,142.119051 L258.837376,185.14278 L258.837376,133.373288 L275.900724,116.220746 L275.941448,116.261424 L275.941448,116.261424 Z" id="Stroke-53"></path>
                        <path d="M275.941448,380.355661 L301.706154,406.118373 L301.638281,406.187525 L258.837376,449.223458 L258.837376,397.453966 L275.887149,380.301424 L275.941448,380.355661 L275.941448,380.355661 Z" id="Stroke-54"></path>
                        <path d="M293.340498,165.145763 L318.983032,190.786441 L318.915158,190.854237 L276.114253,233.905085 L276.114253,182.135593 L293.340498,165.145763 L293.340498,165.145763 Z" id="Stroke-55"></path>
                        <path d="M275.941448,248.301831 L301.706154,274.064542 L301.638281,274.132339 L258.837376,317.183186 L258.837376,265.413695 L275.900724,248.261153 L275.941448,248.301831 L275.941448,248.301831 Z" id="Stroke-56"></path>
                        <path d="M293.218597,297.065085 L318.983303,322.827797 L318.91543,322.895593 L276.114525,365.946441 L276.114525,314.175593 L293.177873,297.024407 L293.218597,297.065085 L293.218597,297.065085 Z" id="Stroke-57"></path>
                        <path d="M276.114389,380.196746 L276.114389,431.966237 L233.150588,388.928949 L258.87457,363.206915 L276.114389,380.196746 L276.114389,380.196746 Z" id="Stroke-58"></path>
                        <path d="M258.83724,331.433492 L258.83724,383.204339 L215.859864,340.153492 L241.597421,314.431458 L258.83724,331.433492 L258.83724,331.433492 Z" id="Stroke-59"></path>
                        <path d="M276.114389,248.156203 L276.114389,299.925695 L233.137014,256.874847 L258.87457,231.152814 L276.114389,248.156203 L276.114389,248.156203 Z" id="Stroke-60"></path>
                        <path d="M258.83724,199.393627 L258.83724,251.163119 L215.859864,208.112271 L241.597421,182.390237 L258.83724,199.393627 L258.83724,199.393627 Z" id="Stroke-61"></path>
                        <path d="M276.114389,116.115661 L276.114389,167.885153 L233.137014,124.834305 L258.87457,99.1122712 L276.114389,116.115661 L276.114389,116.115661 Z" id="Stroke-62"></path>
                        <path d="M258.83724,67.3524068 L258.83724,119.121898 L215.859864,76.0710508 L241.597421,50.3503729 L258.83724,67.3524068 L258.83724,67.3524068 Z" id="Stroke-63"></path>
                        <path d="M208.353077,17.5629831 L234.43,43.2850169 L194.086109,83.583322 L194.086109,31.8138305 L208.353077,17.5629831 L208.353077,17.5629831 Z" id="Stroke-64"></path>
                        <path d="M225.630362,66.3255593 L251.707285,92.0475932 L211.363394,132.345898 L211.363394,80.5764068 L225.630362,66.3255593 L225.630362,66.3255593 Z" id="Stroke-65"></path>
                        <path d="M208.353077,149.603525 L234.43,175.325559 L194.086109,215.623864 L194.086109,163.867932 L208.353077,149.603525 L208.353077,149.603525 Z" id="Stroke-66"></path>
                        <path d="M225.630362,198.366102 L251.707285,224.088136 L211.363394,264.386441 L211.363394,212.630508 L225.630362,198.366102 L225.630362,198.366102 Z" id="Stroke-67"></path>
                        <path d="M208.353077,281.644068 L234.43,307.366102 L194.086109,347.664407 L194.086109,295.909831 L208.353077,281.644068 L208.353077,281.644068 Z" id="Stroke-68"></path>
                        <path d="M225.630362,330.407322 L251.707285,356.129356 L211.363394,396.426305 L211.363394,344.671729 L225.630362,330.407322 L225.630362,330.407322 Z" id="Stroke-69"></path>
                        <path d="M208.353077,413.68461 L234.43,439.408 L194.086109,479.718508 L194.086109,427.950373 L208.353077,413.68461 L208.353077,413.68461 Z" id="Stroke-70"></path>
                        <path d="M211.363665,410.691932 L211.363665,462.461424 L171.074072,422.217356 L196.906652,396.237695 L211.363665,410.691932 L211.363665,410.691932 Z" id="Stroke-72"></path>
                        <path d="M194.08638,361.928678 L194.08638,413.68461 L153.796787,373.440542 L179.629367,347.474441 L194.08638,361.928678 L194.08638,361.928678 Z" id="Stroke-73"></path>
                        <path d="M211.363665,278.651525 L211.363665,330.407458 L171.074072,290.162034 L196.906652,264.197288 L211.363665,278.651525 L211.363665,278.651525 Z" id="Stroke-74"></path>
                        <path d="M194.08638,229.888271 L194.08638,281.644203 L153.796787,241.400136 L179.629367,215.434034 L194.08638,229.888271 L194.08638,229.888271 Z" id="Stroke-75"></path>
                        <path d="M194.08638,97.8344407 L194.08638,149.603932 L153.796787,109.373424 L179.642941,83.407322 L194.08638,97.8344407 L194.08638,97.8344407 Z" id="Stroke-76"></path>
                        <path d="M211.363665,14.5557966 L211.363665,66.3252881 L171.291267,26.2981695 L197.381765,0.577491525 L211.363665,14.5557966 L211.363665,14.5557966 Z" id="Stroke-77"></path>
                        <path d="M189.888145,125.132475 L147.182262,167.885017 L147.182262,116.115525 L163.974118,99.2341695 L189.888145,125.132475 L189.888145,125.132475 Z" id="Stroke-79"></path>
                        <path d="M146.860136,50.6344407 L172.516244,76.288678 L129.905385,119.122576 L129.905385,67.3517288 L146.860136,50.6344407 L146.860136,50.6344407 Z" id="Stroke-80"></path>
                        <path d="M146.860136,182.674847 L172.50267,208.315525 L129.905385,251.162983 L129.905385,199.393492 L146.860136,182.674847 L146.860136,182.674847 Z" id="Stroke-81"></path>
                        <path d="M163.974253,231.274576 L189.779683,257.077966 L147.182398,299.925424 L147.182398,248.155932 L163.974253,231.274576 L163.974253,231.274576 Z" id="Stroke-82"></path>
                        <path d="M146.697104,314.55322 L172.502534,340.355254 L129.905249,383.204068 L129.905249,331.43322 L146.697104,314.55322 L146.697104,314.55322 Z" id="Stroke-83"></path>
                        <path d="M189.779412,389.118915 L147.182127,431.966373 L147.182127,380.196881 L163.973982,363.327729 L189.779412,389.118915 L189.779412,389.118915 Z" id="Stroke-84"></path>
                        <path d="M129.905113,397.454373 L129.905113,449.223864 L86.9413122,406.173017 L112.665294,380.450983 L129.905113,397.454373 L129.905113,397.454373 Z" id="Stroke-85"></path>
                        <path d="M147.182262,314.175864 L147.182262,365.946712 L104.218462,322.895864 L129.942443,297.173831 L147.182262,314.175864 L147.182262,314.175864 Z" id="Stroke-86"></path>
                        <path d="M129.905113,265.413966 L129.905113,317.183458 L86.9413122,274.13261 L112.665294,248.410576 L129.905113,265.413966 L129.905113,265.413966 Z" id="Stroke-87"></path>
                        <path d="M147.182262,182.136 L147.182262,233.905492 L104.218462,190.854644 L129.942443,165.13261 L147.182262,182.136 L147.182262,182.136 Z" id="Stroke-88"></path>
                        <path d="M129.905113,133.373424 L129.905113,185.142915 L86.9413122,142.092068 L112.665294,116.370034 L129.905113,133.373424 L129.905113,133.373424 Z" id="Stroke-89"></path>
                        <path d="M147.182262,50.0947797 L147.182262,101.864271 L104.218462,58.8134237 L129.942443,33.0913898 L147.182262,50.0947797 L147.182262,50.0947797 Z" id="Stroke-90"></path>
                        <path d="M105.511719,241.346169 L65.1678281,281.644475 L65.1542534,229.888542 L79.4212217,215.624136 L105.511719,241.346169 L105.511719,241.346169 Z" id="Stroke-91"></path>
                        <path d="M122.789005,26.0269831 L82.4315385,66.3252881 L82.4451131,14.5557966 L96.6985068,0.304949153 L122.789005,26.0269831 L122.789005,26.0269831 Z" id="Stroke-92"></path>
                        <path d="M381.195973,26.0269831 L340.838507,66.3252881 L340.852081,14.5557966 L355.105475,0.304949153 L381.195973,26.0269831 L381.195973,26.0269831 Z" id="Stroke-94"></path>
                        <path d="M105.511719,109.305627 L65.1542534,149.603932 L65.1542534,97.8344407 L79.4212217,83.5835932 L105.511719,109.305627 L105.511719,109.305627 Z" id="Stroke-97"></path>
                        <path d="M122.789005,158.068203 L82.4315385,198.366508 L82.4315385,146.610576 L96.6985068,132.346169 L122.789005,158.068203 L122.789005,158.068203 Z" id="Stroke-98"></path>
                        <path d="M122.789005,290.108068 L82.4315385,330.407729 L82.4315385,278.651797 L96.6985068,264.386034 L122.789005,290.108068 L122.789005,290.108068 Z" id="Stroke-99"></path>
                        <path d="M105.511719,373.386576 L65.1542534,413.684881 L65.1542534,361.928949 L79.4212217,347.664542 L105.511719,373.386576 L105.511719,373.386576 Z" id="Stroke-100"></path>
                        <path d="M96.6982353,396.426847 L122.775158,422.162441 L82.431267,462.460746 L82.431267,410.69261 L96.6982353,396.426847 L96.6982353,396.426847 Z" id="Stroke-101"></path>
                        <path d="M50.9009955,17.5629831 L65.1679638,31.8138305 L65.1543891,83.583322 L24.8240724,43.2985763 L50.9009955,17.5629831 L50.9009955,17.5629831 Z" id="Stroke-102"></path>
                        <path d="M82.4315385,212.630508 L82.4451131,264.386441 L41.9383258,223.938983 L41.8568778,223.857627 L67.6215837,197.959322 L67.689457,197.891525 L82.4315385,212.630508 L82.4315385,212.630508 Z" id="Stroke-103"></path>
                        <path d="M65.1543891,427.949695 L65.1543891,479.719186 L24.6611765,439.258169 L24.5933032,439.190373 L50.3444344,413.290712 L50.4123077,413.224271 L65.1543891,427.949695 L65.1543891,427.949695 Z" id="Stroke-104"></path>
                        <path d="M82.4315385,344.671051 L82.4315385,396.426983 L41.9383258,355.979525 L41.8704525,355.911729 L67.6215837,330.013424 L67.7030317,329.932068 L82.4315385,344.671051 L82.4315385,344.671051 Z" id="Stroke-106"></path>
                        <path d="M65.1543891,295.909153 L65.1543891,347.665085 L24.6611765,307.217627 L24.5933032,307.149831 L50.3444344,281.250169 L50.4258824,281.170169 L65.1543891,295.909153 L65.1543891,295.909153 Z" id="Stroke-107"></path>
                        <path d="M65.1543891,163.867932 L65.1543891,215.623864 L24.8240724,175.339119 L50.9009955,149.603525 L65.1543891,163.867932 L65.1543891,163.867932 Z" id="Stroke-108"></path>
                        <path d="M82.4315385,80.5768136 L82.4315385,132.346305 L41.9383258,91.8988475 L41.8704525,91.8310508 L67.6215837,65.9598644 L67.7166063,65.8649492 L82.4315385,80.5768136 L82.4315385,80.5768136 Z" id="Stroke-109"></path>
                        <path d="M43.4480995,142.159864 L0.43,185.142915 L0.43,133.373424 L17.5069231,116.220881 L17.5476471,116.261559 L43.4480995,142.159864 L43.4480995,142.159864 Z" id="Stroke-110"></path>
                        <path d="M60.6033484,58.7461695 L60.5083258,58.8410847 L17.7074208,101.864814 L17.7074208,50.095322 L34.9336652,33.0919322 L60.6033484,58.7461695 L60.6033484,58.7461695 Z" id="Stroke-111"></path>
                        <path d="M34.9335294,165.132475 L60.5760633,190.786712 L60.50819,190.854508 L17.7072851,233.905356 L17.7072851,182.135864 L34.9335294,165.132475 L34.9335294,165.132475 Z" id="Stroke-112"></path>
                        <path d="M17.5476471,248.301831 L43.2987783,274.064542 L43.230905,274.132339 L0.43,317.183186 L0.43,265.413695 L17.4933484,248.247593 L17.5476471,248.301831 L17.5476471,248.301831 Z" id="Stroke-113"></path>
                        <path d="M34.8247964,297.065085 L60.5759276,322.827797 L60.5080543,322.895593 L17.7071493,365.946441 L17.7071493,314.175593 L34.7704977,297.010847 L34.8247964,297.065085 L34.8247964,297.065085 Z" id="Stroke-114"></path>
                        <path d="M17.5476471,380.355661 L43.2987783,406.104814 L43.230905,406.17261 L0.43,449.223458 L0.43,397.453966 L17.4933484,380.301424 L17.5476471,380.355661 L17.5476471,380.355661 Z" id="Stroke-115"></path>
                        <path d="M293.340498,33.1052203 L318.996606,58.7594576 L318.915158,58.8408136 L276.114253,101.864542 L276.114253,50.0950508 L293.340498,33.1052203 L293.340498,33.1052203 Z" id="Stroke-133"></path>
                    </g>
                </g>
            </g>
        </g>
    </g>
</svg>