<?xml version="1.0" encoding="UTF-8" standalone="no"?>
<svg width="80px" height="24px" viewBox="0 0 80 24" version="1.1" xmlns="http://www.w3.org/2000/svg" xmlns:xlink="http://www.w3.org/1999/xlink" xmlns:sketch="http://www.bohemiancoding.com/sketch/ns">
    <!-- Generator: Sketch 3.5.1 (25234) - http://www.bohemiancoding.com/sketch -->
    <title>Logo</title>
    <desc>Created with Sketch.</desc>
    <defs></defs>
    <g id="V3" stroke="none" stroke-width="1" fill="none" fill-rule="evenodd" sketch:type="MSPage">
        <g id="Project---Desktop" sketch:type="MSArtboardGroup" transform="translate(-40.000000, -30.000000)">
            <g id="Navigation" sketch:type="MSLayerGroup" transform="translate(40.000000, 30.000000)">
                <g id="Logo" transform="translate(40.000000, 12.000000) scale(-1, 1) translate(-40.000000, -12.000000) " sketch:type="MSShapeGroup">
                    <path d="M41.25,0 L49.375,0 L38.75,23.75 L31.25,23.75 L41.25,0 Z" id="Rectangle-1" fill-opacity="0.5" fill="#FFFFFF"></path>
                    <path d="M61.875,0 L70,0 L59.375,23.75 L51.875,23.75 L61.875,0 Z" id="Rectangle-1" fill-opacity="0.5" fill="#FFFFFF"></path>
                    <path d="M20.625,0 L28.75,0 L18.125,23.75 L10.625,23.75 L20.625,0 Z" id="Rectangle-1" fill-opacity="0.5" fill="#FFFFFF"></path>
                    <path d="M41.25,0 L49.375,0 L43.4979583,13.1369168 L41.25,0 Z" id="Rectangle-1" fill-opacity="0.200000018" fill="#000000"></path>
                    <path d="M61.875,0 L70,0 L64.1229583,13.1369168 L61.875,0 Z" id="Rectangle-1" fill-opacity="0.200000018" fill="#000000"></path>
                    <path d="M20.625,0 L28.75,0 L22.8729583,13.1369168 L20.625,0 Z" id="Rectangle-1" fill-opacity="0.200000018" fill="#000000"></path>
                    <path d="M51.25,23.75 L59.375,23.75 L49.375,0 L41.25,0 L51.25,23.75 Z" id="Rectangle-1" fill="#FFFFFF"></path>
                    <path d="M10,23.75 L18.125,23.75 L8.125,0 L0,0 L10,23.75 Z" id="Rectangle-1" fill="#FFFFFF"></path>
                    <path d="M71.875,23.75 L80,23.75 L70,0 L61.875,0 L71.875,23.75 Z" id="Rectangle-1" fill="#FFFFFF"></path>
                    <path d="M30.625,23.75 L38.75,23.75 L28.75,0 L20.625,0 L30.625,23.75 Z" id="Rectangle-1" fill="#FFFFFF"></path>
                </g>
            </g>
        </g>
    </g>
</svg>