<?xml version="1.0" encoding="UTF-8"?>
<svg width="80px" height="24px" viewBox="0 0 80 24" version="1.1" xmlns="http://www.w3.org/2000/svg" xmlns:xlink="http://www.w3.org/1999/xlink">
    <!-- Generator: Sketch 53 (72520) - https://sketchapp.com -->
    <title>logo</title>
    <desc>Created with Sketch.</desc>
    <g id="Page-1" stroke="none" stroke-width="1" fill="none" fill-rule="evenodd">
        <g id="logo" fill-rule="nonzero">
            <g id="Logo" transform="translate(40.000000, 12.000000) scale(-1, 1) translate(-40.000000, -12.000000) ">
                <polygon id="Rectangle-1" fill="#48767B" points="41.25 0 49.375 0 38.75 23.75 31.25 23.75"></polygon>
                <polygon id="Rectangle-1" fill="#48767B" points="61.875 0 70 0 59.375 23.75 51.875 23.75"></polygon>
                <polygon id="Rectangle-1" fill="#48767B" points="20.625 0 28.75 0 18.125 23.75 10.625 23.75"></polygon>
                <polygon id="Rectangle-1" fill-opacity="0.200000018" fill="#000000" points="41.25 0 49.375 0 43.4979583 13.1369168"></polygon>
                <polygon id="Rectangle-1" fill-opacity="0.200000018" fill="#000000" points="61.875 0 70 0 64.1229583 13.1369168"></polygon>
                <polygon id="Rectangle-1" fill-opacity="0.200000018" fill="#000000" points="20.625 0 28.75 0 22.8729583 13.1369168"></polygon>
                <polygon id="Rectangle-1" fill="#74B3BA" points="51.25 23.75 59.375 23.75 49.375 0 41.25 0"></polygon>
                <polygon id="Rectangle-1" fill="#74B3BA" points="10 23.75 18.125 23.75 8.125 0 0 0"></polygon>
                <polygon id="Rectangle-1" fill="#74B3BA" points="71.875 23.75 80 23.75 70 0 61.875 0"></polygon>
                <polygon id="Rectangle-1" fill="#74B3BA" points="30.625 23.75 38.75 23.75 28.75 0 20.625 0"></polygon>
            </g>
        </g>
    </g>
</svg>